<svg width="20" height="20" viewBox="0 0 20 20" fill="none" xmlns="http://www.w3.org/2000/svg">
<g id="Iconly/Light/Category">
<g id="Category">
<path id="Stroke 1" fill-rule="evenodd" clip-rule="evenodd" d="M2.5 5.41667C2.5 3.22899 2.52342 2.5 5.41667 2.5C8.30991 2.5 8.33333 3.22899 8.33333 5.41667C8.33333 7.60434 8.34256 8.33333 5.41667 8.33333C2.49077 8.33333 2.5 7.60434 2.5 5.41667Z" stroke="#6C757D" stroke-width="1.5" stroke-linecap="round" stroke-linejoin="round"/>
<path id="Stroke 3" fill-rule="evenodd" clip-rule="evenodd" d="M11.6665 5.41667C11.6665 3.22899 11.6899 2.5 14.5832 2.5C17.4764 2.5 17.4998 3.22899 17.4998 5.41667C17.4998 7.60434 17.5091 8.33333 14.5832 8.33333C11.6573 8.33333 11.6665 7.60434 11.6665 5.41667Z" stroke="#6C757D" stroke-width="1.5" stroke-linecap="round" stroke-linejoin="round"/>
<path id="Stroke 5" fill-rule="evenodd" clip-rule="evenodd" d="M2.5 14.5833C2.5 12.3956 2.52342 11.6667 5.41667 11.6667C8.30991 11.6667 8.33333 12.3956 8.33333 14.5833C8.33333 16.771 8.34256 17.5 5.41667 17.5C2.49077 17.5 2.5 16.771 2.5 14.5833Z" stroke="#6C757D" stroke-width="1.5" stroke-linecap="round" stroke-linejoin="round"/>
<path id="Stroke 7" fill-rule="evenodd" clip-rule="evenodd" d="M11.6665 14.5833C11.6665 12.3956 11.6899 11.6667 14.5832 11.6667C17.4764 11.6667 17.4998 12.3956 17.4998 14.5833C17.4998 16.771 17.5091 17.5 14.5832 17.5C11.6573 17.5 11.6665 16.771 11.6665 14.5833Z" stroke="#6C757D" stroke-width="1.5" stroke-linecap="round" stroke-linejoin="round"/>
</g>
</g>
</svg>
