<svg width="20" height="20" viewBox="0 0 20 20" fill="none" xmlns="http://www.w3.org/2000/svg">
<g id="Iconly/Light/Chat">
<g id="Chat">
<path id="Stroke 4" fill-rule="evenodd" clip-rule="evenodd" d="M15.8926 15.8916C13.3458 18.4386 9.57465 18.9889 6.48852 17.5617C6.03293 17.3783 5.65941 17.23 5.30431 17.23C4.31524 17.2359 3.08414 18.1949 2.4443 17.5558C1.80447 16.9159 2.76422 15.6839 2.76422 14.6888C2.76422 14.3337 2.62185 13.9668 2.43844 13.5103C1.01053 10.4247 1.56159 6.65226 4.10839 4.10603C7.3595 0.853714 12.6415 0.853714 15.8926 4.10519C19.1496 7.36253 19.1438 12.6401 15.8926 15.8916Z" stroke="#6C757D" stroke-width="1.5" stroke-linecap="round" stroke-linejoin="round"/>
<path id="Stroke 11" d="M13.2825 10.3442H13.29" stroke="#6C757D" stroke-width="2" stroke-linecap="round" stroke-linejoin="round"/>
<path id="Stroke 13" d="M9.94173 10.3442H9.94923" stroke="#6C757D" stroke-width="2" stroke-linecap="round" stroke-linejoin="round"/>
<path id="Stroke 15" d="M6.60091 10.3442H6.60841" stroke="#6C757D" stroke-width="2" stroke-linecap="round" stroke-linejoin="round"/>
</g>
</g>
</svg>
