<svg width="20" height="20" viewBox="0 0 20 20" fill="none" xmlns="http://www.w3.org/2000/svg">
<g id="Iconly/Light/Home">
<g id="Home">
<g id="Home_2">
<mask id="path-1-inside-1_10_5308" fill="white">
<path fill-rule="evenodd" clip-rule="evenodd" d="M7.63118 17.3095V14.7539C7.63116 14.1039 8.16109 13.5757 8.81767 13.5713H11.2227C11.8824 13.5713 12.4173 14.1008 12.4173 14.7539V17.3175C12.4171 17.8694 12.862 18.3204 13.4194 18.3334H15.0227C16.6211 18.3334 17.9168 17.0506 17.9168 15.4682V8.19822C17.9083 7.57571 17.6131 6.99114 17.1151 6.61088L11.6316 2.23777C10.6709 1.47633 9.30533 1.47633 8.34468 2.23777L2.88518 6.61882C2.38538 6.99754 2.08965 7.58308 2.0835 8.20615V15.4682C2.0835 17.0506 3.37923 18.3334 4.97759 18.3334H6.58096C7.15212 18.3334 7.61514 17.875 7.61514 17.3095"/>
</mask>
<path d="M6.13118 17.3095C6.13118 18.1379 6.80275 18.8095 7.63118 18.8095C8.4596 18.8095 9.13118 18.1379 9.13118 17.3095H6.13118ZM7.63118 14.7539H9.13118V14.7539L7.63118 14.7539ZM8.81767 13.5713V12.0713L8.80771 12.0714L8.81767 13.5713ZM13.9173 14.7539C13.9173 13.9255 13.2457 13.2539 12.4173 13.2539C11.5888 13.2539 10.9173 13.9255 10.9173 14.7539H13.9173ZM12.4173 17.3175L13.9173 17.3179V17.3175H12.4173ZM13.4194 18.3334L13.3846 19.8329C13.3962 19.8332 13.4078 19.8334 13.4194 19.8334V18.3334ZM15.0227 18.3334V16.8334V18.3334ZM16.4168 15.4682C16.4168 16.2966 17.0884 16.9682 17.9168 16.9682C18.7453 16.9682 19.4168 16.2966 19.4168 15.4682H16.4168ZM17.9168 8.19822H19.4168C19.4168 8.19136 19.4168 8.18451 19.4167 8.17765L17.9168 8.19822ZM17.1151 6.61088L16.1799 7.78361C16.1881 7.79016 16.1964 7.79662 16.2047 7.80299L17.1151 6.61088ZM11.6316 2.23777L12.5669 1.06503L12.5633 1.06225L11.6316 2.23777ZM8.34468 2.23777L7.41291 1.06223L7.40588 1.06788L8.34468 2.23777ZM2.88518 6.61882L3.79109 7.81436C3.80218 7.80597 3.81314 7.79741 3.82398 7.78871L2.88518 6.61882ZM2.0835 8.20615L0.583569 8.19133C0.583521 8.19627 0.583496 8.20121 0.583496 8.20615H2.0835ZM9.13118 17.3095V14.7539H6.13118V17.3095H9.13118ZM9.13118 14.7539C9.13118 14.9424 8.98148 15.0703 8.82764 15.0713L8.80771 12.0714C7.34071 12.0811 6.13114 13.2653 6.13118 14.7539L9.13118 14.7539ZM8.81767 15.0713H11.2227V12.0713H8.81767V15.0713ZM11.2227 15.0713C11.0683 15.0713 10.9173 14.9434 10.9173 14.7539H13.9173C13.9173 13.2582 12.6966 12.0713 11.2227 12.0713V15.0713ZM10.9173 14.7539V17.3175H13.9173V14.7539H10.9173ZM10.9173 17.317C10.9169 18.6977 12.0262 19.8014 13.3846 19.8329L13.4542 16.8338C13.6979 16.8394 13.9173 17.041 13.9173 17.3179L10.9173 17.317ZM13.4194 19.8334H15.0227V16.8334H13.4194V19.8334ZM15.0227 19.8334C17.4353 19.8334 19.4168 17.8932 19.4168 15.4682H16.4168C16.4168 16.208 15.8069 16.8334 15.0227 16.8334V19.8334ZM19.4168 15.4682V8.19822H16.4168V15.4682H19.4168ZM19.4167 8.17765C19.4018 7.09146 18.8866 6.07634 18.0256 5.41877L16.2047 7.80299C16.3395 7.90594 16.4148 8.05996 16.417 8.21878L19.4167 8.17765ZM18.0504 5.43815L12.5668 1.06504L10.6963 3.41051L16.1799 7.78361L18.0504 5.43815ZM12.5633 1.06225C11.0569 -0.131835 8.91941 -0.131835 7.41293 1.06225L9.27643 3.41329C9.69125 3.08449 10.285 3.08449 10.6998 3.41329L12.5633 1.06225ZM7.40588 1.06788L1.94638 5.44892L3.82398 7.78871L9.28348 3.40767L7.40588 1.06788ZM1.97927 5.42327C1.11217 6.08031 0.594346 7.10048 0.583569 8.19133L3.58342 8.22097C3.58496 8.06567 3.65859 7.91476 3.79109 7.81436L1.97927 5.42327ZM0.583496 8.20615V15.4682H3.5835V8.20615H0.583496ZM0.583496 15.4682C0.583496 17.8932 2.56505 19.8334 4.97759 19.8334V16.8334C4.1934 16.8334 3.5835 16.208 3.5835 15.4682H0.583496ZM4.97759 19.8334H6.58096V16.8334H4.97759V19.8334ZM6.58096 19.8334C7.9663 19.8334 9.11514 18.7176 9.11514 17.3095H6.11514C6.11514 17.0324 6.33795 16.8334 6.58096 16.8334V19.8334Z" fill="#6C757D" mask="url(#path-1-inside-1_10_5308)"/>
</g>
</g>
</g>
</svg>
