<svg width="20" height="20" viewBox="0 0 20 20" fill="none" xmlns="http://www.w3.org/2000/svg">
<g id="Iconly/Light/Ticket">
<g id="Ticket">
<g id="Group">
<path id="Stroke 1" d="M11.5412 3.54187V5.55854" stroke="#6C757D" stroke-width="1.5" stroke-linecap="round" stroke-linejoin="round"/>
<path id="Stroke 3" d="M11.5412 14.8V16.4867" stroke="#6C757D" stroke-width="1.5" stroke-linecap="round" stroke-linejoin="round"/>
<path id="Stroke 6" d="M11.5412 11.9371V7.91962" stroke="#6C757D" stroke-width="1.5" stroke-linecap="round" stroke-linejoin="round"/>
</g>
<path id="Stroke 7" fill-rule="evenodd" clip-rule="evenodd" d="M15.5849 16.6666C17.1033 16.6666 18.3332 15.4521 18.3332 13.9526V11.7922C17.3284 11.7922 16.5193 10.9931 16.5193 10.0008C16.5193 9.00861 17.3284 8.20864 18.3332 8.20864L18.3323 6.04736C18.3323 4.54785 17.1016 3.33331 15.5841 3.33331H4.4156C2.89808 3.33331 1.66737 4.54785 1.66737 6.04736L1.6665 8.27902C2.67123 8.27902 3.4804 9.00861 3.4804 10.0008C3.4804 10.9931 2.67123 11.7922 1.6665 11.7922V13.9526C1.6665 15.4521 2.89634 16.6666 4.41473 16.6666H15.5849Z" stroke="#6C757D" stroke-width="1.5" stroke-linecap="round" stroke-linejoin="round"/>
</g>
</g>
</svg>
